<svg width="512" height="512" viewBox="0 0 512 512" fill="none" xmlns="http://www.w3.org/2000/svg">
<rect width="512" height="512" fill="white"/>
<path d="M174.659 373.55L114.445 423.386C105.97 430.396 110.024 440.986 122.44 444.31L181.312 460.059C194.013 463.456 207.817 457.245 208.178 447.973L210.716 382.687C211.228 369.528 186.95 363.374 174.659 373.55Z" fill="#EE3030"/>
<path d="M164.652 324.004L75.3507 302.212C62.7849 299.145 49.4716 305.297 49.0466 314.367L47.0107 357.345C46.5694 366.619 59.8203 373.366 72.7918 370.48L164.104 350.159C182.513 346.06 182.88 328.453 164.652 324.004Z" fill="#EE3030"/>
<path d="M267.679 331.468L358.629 314.303C371.422 311.886 377.066 301.63 369.772 294.031L335.221 258.035C327.765 250.272 311.313 249.937 303.205 257.388L246.095 309.834C234.583 320.408 249.118 334.971 267.679 331.468Z" fill="#EE3030"/>
<path d="M198.332 182.569C199.05 171.837 184.359 163.738 169.303 166.57L97.9515 179.986C82.5589 182.88 76.0232 195.423 85.2286 204.395L167.109 302.064C167.773 302.86 168.508 303.626 169.369 304.321C181.497 314.134 204.257 310.499 209.872 299.013C210.877 296.95 211.162 294.749 210.918 292.582L198.332 182.569Z" fill="#F31414"/>
<path d="M359.094 375.722L267.24 356.554C248.725 352.689 233.491 366.935 244.616 377.711L299.111 430.504C306.78 437.932 322.874 438.122 330.914 430.88L369.021 396.556C377.241 389.149 372.14 378.442 359.094 375.722Z" fill="#EE3030"/>
<path d="M212.463 298.245C213.483 296.179 213.773 293.974 213.524 291.803L200.753 181.599C201.482 170.847 186.574 162.734 171.296 165.571L131.65 172.929L195.338 308.732C202.974 307.453 209.729 303.768 212.463 298.245Z" fill="#EE3030"/>
</svg>
