<svg width="100" height="100" viewBox="0 0 512 512" fill="none" xmlns="http://www.w3.org/2000/svg">
<g id="yelp 1">
<g id="Group">
<path id="Vector" d="M380.524 279.252L340.656 307.033C335.045 310.94 337.729 316.844 345.949 318.697L384.929 327.476C393.339 329.369 402.478 325.907 402.717 320.739L404.398 284.346C404.737 277.01 388.662 273.58 380.524 279.252Z" fill="#F40D15"/>
<path id="Vector_2" d="M373.898 251.634L314.771 239.486C306.451 237.777 297.636 241.206 297.355 246.262L296.007 270.219C295.715 275.389 304.488 279.15 313.077 277.541L373.535 266.213C385.724 263.929 385.967 254.114 373.898 251.634Z" fill="#F40D15"/>
</g>
<path id="Vector_3" d="M441.902 255.701L502.303 246.045C510.8 244.686 514.548 238.917 509.704 234.643L486.757 214.395C481.806 210.028 470.88 209.839 465.495 214.031L427.567 243.532C419.922 249.48 429.575 257.671 441.902 255.701Z" fill="#F40D15"/>
<path id="Vector_4" d="M396.467 173.205C396.942 167.243 387.223 162.744 377.263 164.316L353.663 168.043L330.062 171.77C319.879 173.378 315.555 180.346 321.645 185.33L375.812 239.591C376.251 240.033 376.737 240.459 377.307 240.845C385.33 246.297 400.387 244.277 404.101 237.896C404.766 236.75 404.955 235.527 404.793 234.323L396.467 173.205Z" fill="#F40D15"/>
<g id="Group_2">
<path id="Vector_5" d="M502.638 280.686L441.802 270.072C429.54 267.932 419.45 275.821 426.818 281.788L462.91 311.022C467.99 315.135 478.649 315.24 483.974 311.23L509.212 292.223C514.657 288.121 511.278 282.193 502.638 280.686Z" fill="#F40D15"/>
<path id="Vector_6" d="M405.523 237.784C406.198 236.64 406.39 235.419 406.226 234.217L397.768 173.191C398.25 167.238 388.376 162.745 378.258 164.316L352 168.39L394.181 243.591C399.238 242.883 403.712 240.842 405.523 237.784Z" fill="#F40D15"/>
</g>
<g id="ZelpText">
<path id="Zelp" d="M22.016 289.784L18.176 282.36H77.184V299H4.736V283.128L58.624 223.736L62.464 231.16H5.632V214.52H75.648V230.392L22.016 289.784ZM118.915 300.28C111.832 300.28 105.688 298.957 100.483 296.312C95.363 293.667 91.395 289.869 88.579 284.92C85.763 279.971 84.355 273.997 84.355 267C84.355 260.003 85.763 254.029 88.579 249.08C91.395 244.131 95.3203 240.333 100.355 237.688C105.475 235.043 111.32 233.72 117.891 233.72C124.632 233.72 130.35 235.043 135.043 237.688C139.822 240.248 143.448 243.832 145.923 248.44C148.398 252.963 149.635 258.168 149.635 264.056C149.635 265.592 149.592 267.128 149.507 268.664C149.422 270.2 149.294 271.48 149.123 272.504H98.435V260.856H139.523L129.155 264.824C129.155 259.704 128.216 255.779 126.339 253.048C124.547 250.317 121.731 248.952 117.891 248.952C115.16 248.952 112.814 249.592 110.851 250.872C108.974 252.152 107.523 254.157 106.499 256.888C105.56 259.619 105.091 263.117 105.091 267.384C105.091 271.565 105.646 274.979 106.755 277.624C107.864 280.184 109.443 282.061 111.491 283.256C113.539 284.365 116.014 284.92 118.915 284.92C122.158 284.92 124.718 284.28 126.595 283C128.558 281.72 130.008 279.928 130.947 277.624L148.355 283.384C147.16 287.053 145.07 290.168 142.083 292.728C139.182 295.203 135.683 297.08 131.587 298.36C127.576 299.64 123.352 300.28 118.915 300.28ZM183.312 207.864V277.24C183.312 280.056 183.781 282.061 184.72 283.256C185.659 284.451 187.237 285.048 189.456 285.048C190.736 285.048 191.803 284.963 192.656 284.792C193.509 284.621 194.533 284.365 195.728 284.024L194.32 297.08C192.784 298.019 190.779 298.787 188.304 299.384C185.829 299.981 183.397 300.28 181.008 300.28C174.181 300.28 169.232 298.701 166.16 295.544C163.088 292.387 161.552 287.224 161.552 280.056V207.864H183.312ZM203.683 325.88V235H223.267L224.419 258.168L221.859 255.48C222.456 251.213 223.779 247.459 225.827 244.216C227.875 240.973 230.52 238.413 233.763 236.536C237.006 234.659 240.718 233.72 244.899 233.72C250.19 233.72 254.798 235.043 258.723 237.688C262.648 240.248 265.678 244.003 267.811 248.952C270.03 253.816 271.139 259.747 271.139 266.744C271.139 273.741 270.03 279.757 267.811 284.792C265.592 289.827 262.478 293.667 258.467 296.312C254.542 298.957 249.934 300.28 244.643 300.28C238.84 300.28 234.147 298.573 230.563 295.16C226.979 291.661 224.59 287.267 223.395 281.976L225.443 278.904V325.88H203.683ZM237.219 284.28C240.974 284.28 243.918 282.915 246.051 280.184C248.184 277.368 249.251 272.973 249.251 267C249.251 261.027 248.184 256.675 246.051 253.944C244.003 251.128 241.102 249.72 237.347 249.72C234.958 249.72 232.867 250.403 231.075 251.768C229.283 253.048 227.875 254.968 226.851 257.528C225.912 260.088 225.443 263.245 225.443 267C225.443 270.584 225.87 273.699 226.723 276.344C227.662 278.904 229.027 280.867 230.819 282.232C232.611 283.597 234.744 284.28 237.219 284.28Z" fill="black"/>
</g>
</g>
</svg>
